<svg width="500" height="500" viewBox="0 0 500 500" fill="none" xmlns="http://www.w3.org/2000/svg">
<mask id="path-1-inside-1_16_4" fill="#f59e0b">
<path d="M232.502 0.0996768C174.804 4.68481 123.745 26.4144 81.6501 64.358C74.7449 70.538 68.8357 76.6515 60.1378 86.4198C43.074 105.757 26.4085 133.866 16.2499 160.845C-4.20007 214.936 -5.3952 274.875 12.9301 329.299C38.4926 405.12 99.3779 465.125 174.737 488.649C199.37 496.357 217.629 499.348 244.188 499.879C262.779 500.278 272.273 499.746 287.876 497.421C343.915 489.048 397.629 460.141 435.276 418.011C472.258 376.679 492.974 329.897 499.215 273.812C500.41 262.715 500.211 235.271 498.817 223.309C493.904 180.781 479.296 141.707 455.792 108.083C414.494 49.0742 352.679 11.2635 281.635 1.62806C274.265 0.63129 267.028 0.232579 253.749 0.0996768C243.922 -0.0332256 234.361 -0.0332256 232.502 0.0996768ZM267.36 18.3073C323.465 22.6266 375.851 47.1471 415.49 87.8153C428.57 101.172 435.409 109.678 444.306 123.3C467.943 159.716 479.828 197.128 482.151 242.381C482.417 247.099 482.417 250.887 482.218 250.887C481.952 250.887 476.043 247.498 469.005 243.378C431.823 221.382 406.062 209.554 384.549 204.57C380.366 203.64 376.648 203.374 366.954 203.374C355.733 203.44 353.808 203.573 344.38 205.567C329.972 208.624 320.211 210.883 294.184 217.395L271.477 223.044L255.674 220.053C199.503 209.487 152.694 203.042 132.31 203.042C117.039 203.042 97.4524 209.022 68.3045 222.445C55.6892 228.293 37.9615 237.53 26.8069 244.042C22.1592 246.833 18.1754 248.893 17.9762 248.694C17.3787 248.162 19.0386 226.433 20.3665 216.93C33.5793 123.034 102.299 46.9478 194.324 24.3544C206.209 21.4305 220.02 19.3041 234.494 18.108C240.802 17.5764 259.127 17.7093 267.36 18.3073ZM158.47 222.977C176.265 225.037 192.532 227.363 214.11 231.018C224.933 232.812 233.83 234.407 233.963 234.473C234.029 234.606 229.581 236.4 224.003 238.527C198.374 248.295 173.675 259.459 117.969 286.438C95.8589 297.137 73.417 307.835 68.0389 310.294C49.1824 318.8 31.3882 325.378 30.3923 324.249C29.7283 323.451 26.9397 314.347 24.6822 305.443C22.7568 297.735 20.0345 282.318 19.3706 275.008L18.9058 270.29L23.4207 267.3C32.1186 261.585 47.9873 252.747 64.8519 244.308C88.9537 232.28 106.681 225.17 119.961 222.246C126.932 220.651 140.875 220.917 158.47 222.977ZM379.304 221.98C397.895 225.502 427.507 239.457 466.748 263.047L481.222 271.752L480.824 275.806C478.765 295.608 472.059 321.126 464.225 339.599C451.808 368.638 436.272 391.63 413.83 414.024C388.533 439.276 363.568 455.423 330.237 467.916C306.866 476.754 282.764 481.273 256.272 481.937C228.054 482.668 203.952 479.147 177.128 470.508C171.882 468.78 167.832 467.185 168.164 466.853C170.422 464.66 198.374 457.218 235.158 448.911C299.828 434.358 337.541 421.666 359.385 407.18C399.422 380.533 408.452 337.539 382.757 295.542C378.64 288.764 374.723 283.913 366.29 275.141C358.19 266.702 355.667 263.446 352.679 257.532C348.961 250.289 348.031 242.115 350.09 236.068C352.214 229.755 358.987 224.306 367.618 222.047C372.332 220.784 373.129 220.784 379.304 221.98ZM334.42 226.433C334.42 226.565 333.756 228.293 333.026 230.287C330.835 235.869 330.503 246.9 332.362 254.209C335.084 264.908 342.056 276.47 351.019 285.109C380.3 313.351 387.537 348.769 368.946 373.688C357.128 389.637 339.997 400.003 307.331 411.034C285.951 418.211 265.899 423.394 213.911 435.289C174.206 444.326 159.666 449.243 152.495 455.955C150.768 457.55 149.109 458.879 148.777 458.879C147.648 458.879 129.123 448.18 122.085 443.462C94.0662 424.723 71.2259 401.199 53.1662 372.492C47.3897 363.256 36.7663 342.523 37.4967 341.858C37.7623 341.659 41.2149 340.33 45.1986 339.001C59.1418 334.216 76.936 326.375 110.665 310.028C180.647 276.072 195.32 269.294 221.215 258.994C251.359 246.966 261.517 243.976 330.104 227.097C332.893 226.433 334.42 226.167 334.42 226.433Z"/>
<path d="M369.812 65.7558C362.84 67.0184 354.74 70.8061 347.835 76.1222L344.05 79.046L341.527 76.6538C337.942 73.3977 332.365 70.0751 327.584 68.4803C323.667 67.1513 314.305 65.6893 310.387 65.8222C308.462 65.8887 308.462 65.8887 310.056 66.3538C310.985 66.6861 313.641 67.2842 316.031 67.6829C321.276 68.6796 329.974 72.7332 333.825 76.0557C335.352 77.3847 337.942 80.3751 339.602 82.7008C343.918 88.7479 344.117 88.8144 346.042 85.8241C348.698 81.9034 355.271 75.5906 360.052 72.4674C365.031 69.2777 372.667 66.4203 376.452 66.4203C377.912 66.4203 379.24 66.088 379.439 65.7558C379.904 64.9584 374.327 64.9584 369.812 65.7558Z"/>
<path d="M293.827 88.2953C287.918 89.6907 278.954 94.4752 272.58 99.592L270.788 101.054L267.269 97.9307C260.496 91.9501 249.74 88.1624 240.046 88.2953L235.199 88.3617L239.183 88.9598C244.561 89.7572 252.329 92.5482 256.645 95.2727C260.828 97.9972 264.082 101.253 267.733 106.37C269.194 108.43 270.588 110.158 270.788 110.158C271.053 110.158 272.049 108.962 273.045 107.433C276.232 102.915 284.864 95.2727 289.71 92.7475C295.553 89.6907 298.342 88.8933 304.185 88.2288L308.899 87.7637L302.591 87.6972C299.139 87.6972 295.155 87.963 293.827 88.2953Z"/>
</mask>
<path d="M232.502 0.0996768C174.804 4.68481 123.745 26.4144 81.6501 64.358C74.7449 70.538 68.8357 76.6515 60.1378 86.4198C43.074 105.757 26.4085 133.866 16.2499 160.845C-4.20007 214.936 -5.3952 274.875 12.9301 329.299C38.4926 405.12 99.3779 465.125 174.737 488.649C199.37 496.357 217.629 499.348 244.188 499.879C262.779 500.278 272.273 499.746 287.876 497.421C343.915 489.048 397.629 460.141 435.276 418.011C472.258 376.679 492.974 329.897 499.215 273.812C500.41 262.715 500.211 235.271 498.817 223.309C493.904 180.781 479.296 141.707 455.792 108.083C414.494 49.0742 352.679 11.2635 281.635 1.62806C274.265 0.63129 267.028 0.232579 253.749 0.0996768C243.922 -0.0332256 234.361 -0.0332256 232.502 0.0996768ZM267.36 18.3073C323.465 22.6266 375.851 47.1471 415.49 87.8153C428.57 101.172 435.409 109.678 444.306 123.3C467.943 159.716 479.828 197.128 482.151 242.381C482.417 247.099 482.417 250.887 482.218 250.887C481.952 250.887 476.043 247.498 469.005 243.378C431.823 221.382 406.062 209.554 384.549 204.57C380.366 203.64 376.648 203.374 366.954 203.374C355.733 203.44 353.808 203.573 344.38 205.567C329.972 208.624 320.211 210.883 294.184 217.395L271.477 223.044L255.674 220.053C199.503 209.487 152.694 203.042 132.31 203.042C117.039 203.042 97.4524 209.022 68.3045 222.445C55.6892 228.293 37.9615 237.53 26.8069 244.042C22.1592 246.833 18.1754 248.893 17.9762 248.694C17.3787 248.162 19.0386 226.433 20.3665 216.93C33.5793 123.034 102.299 46.9478 194.324 24.3544C206.209 21.4305 220.02 19.3041 234.494 18.108C240.802 17.5764 259.127 17.7093 267.36 18.3073ZM158.47 222.977C176.265 225.037 192.532 227.363 214.11 231.018C224.933 232.812 233.83 234.407 233.963 234.473C234.029 234.606 229.581 236.4 224.003 238.527C198.374 248.295 173.675 259.459 117.969 286.438C95.8589 297.137 73.417 307.835 68.0389 310.294C49.1824 318.8 31.3882 325.378 30.3923 324.249C29.7283 323.451 26.9397 314.347 24.6822 305.443C22.7568 297.735 20.0345 282.318 19.3706 275.008L18.9058 270.29L23.4207 267.3C32.1186 261.585 47.9873 252.747 64.8519 244.308C88.9537 232.28 106.681 225.17 119.961 222.246C126.932 220.651 140.875 220.917 158.47 222.977ZM379.304 221.98C397.895 225.502 427.507 239.457 466.748 263.047L481.222 271.752L480.824 275.806C478.765 295.608 472.059 321.126 464.225 339.599C451.808 368.638 436.272 391.63 413.83 414.024C388.533 439.276 363.568 455.423 330.237 467.916C306.866 476.754 282.764 481.273 256.272 481.937C228.054 482.668 203.952 479.147 177.128 470.508C171.882 468.78 167.832 467.185 168.164 466.853C170.422 464.66 198.374 457.218 235.158 448.911C299.828 434.358 337.541 421.666 359.385 407.18C399.422 380.533 408.452 337.539 382.757 295.542C378.64 288.764 374.723 283.913 366.29 275.141C358.19 266.702 355.667 263.446 352.679 257.532C348.961 250.289 348.031 242.115 350.09 236.068C352.214 229.755 358.987 224.306 367.618 222.047C372.332 220.784 373.129 220.784 379.304 221.98ZM334.42 226.433C334.42 226.565 333.756 228.293 333.026 230.287C330.835 235.869 330.503 246.9 332.362 254.209C335.084 264.908 342.056 276.47 351.019 285.109C380.3 313.351 387.537 348.769 368.946 373.688C357.128 389.637 339.997 400.003 307.331 411.034C285.951 418.211 265.899 423.394 213.911 435.289C174.206 444.326 159.666 449.243 152.495 455.955C150.768 457.55 149.109 458.879 148.777 458.879C147.648 458.879 129.123 448.18 122.085 443.462C94.0662 424.723 71.2259 401.199 53.1662 372.492C47.3897 363.256 36.7663 342.523 37.4967 341.858C37.7623 341.659 41.2149 340.33 45.1986 339.001C59.1418 334.216 76.936 326.375 110.665 310.028C180.647 276.072 195.32 269.294 221.215 258.994C251.359 246.966 261.517 243.976 330.104 227.097C332.893 226.433 334.42 226.167 334.42 226.433Z" fill="#f59e0b"/>
<path d="M369.812 65.7558C362.84 67.0184 354.74 70.8061 347.835 76.1222L344.05 79.046L341.527 76.6538C337.942 73.3977 332.365 70.0751 327.584 68.4803C323.667 67.1513 314.305 65.6893 310.387 65.8222C308.462 65.8887 308.462 65.8887 310.056 66.3538C310.985 66.6861 313.641 67.2842 316.031 67.6829C321.276 68.6796 329.974 72.7332 333.825 76.0557C335.352 77.3847 337.942 80.3751 339.602 82.7008C343.918 88.7479 344.117 88.8144 346.042 85.8241C348.698 81.9034 355.271 75.5906 360.052 72.4674C365.031 69.2777 372.667 66.4203 376.452 66.4203C377.912 66.4203 379.24 66.088 379.439 65.7558C379.904 64.9584 374.327 64.9584 369.812 65.7558Z" fill="#f59e0b"/>
<path d="M293.827 88.2953C287.918 89.6907 278.954 94.4752 272.58 99.592L270.788 101.054L267.269 97.9307C260.496 91.9501 249.74 88.1624 240.046 88.2953L235.199 88.3617L239.183 88.9598C244.561 89.7572 252.329 92.5482 256.645 95.2727C260.828 97.9972 264.082 101.253 267.733 106.37C269.194 108.43 270.588 110.158 270.788 110.158C271.053 110.158 272.049 108.962 273.045 107.433C276.232 102.915 284.864 95.2727 289.71 92.7475C295.553 89.6907 298.342 88.8933 304.185 88.2288L308.899 87.7637L302.591 87.6972C299.139 87.6972 295.155 87.963 293.827 88.2953Z" fill="#f59e0b"/>
<path d="M232.502 0.0996768C174.804 4.68481 123.745 26.4144 81.6501 64.358C74.7449 70.538 68.8357 76.6515 60.1378 86.4198C43.074 105.757 26.4085 133.866 16.2499 160.845C-4.20007 214.936 -5.3952 274.875 12.9301 329.299C38.4926 405.12 99.3779 465.125 174.737 488.649C199.37 496.357 217.629 499.348 244.188 499.879C262.779 500.278 272.273 499.746 287.876 497.421C343.915 489.048 397.629 460.141 435.276 418.011C472.258 376.679 492.974 329.897 499.215 273.812C500.41 262.715 500.211 235.271 498.817 223.309C493.904 180.781 479.296 141.707 455.792 108.083C414.494 49.0742 352.679 11.2635 281.635 1.62806C274.265 0.63129 267.028 0.232579 253.749 0.0996768C243.922 -0.0332256 234.361 -0.0332256 232.502 0.0996768ZM267.36 18.3073C323.465 22.6266 375.851 47.1471 415.49 87.8153C428.57 101.172 435.409 109.678 444.306 123.3C467.943 159.716 479.828 197.128 482.151 242.381C482.417 247.099 482.417 250.887 482.218 250.887C481.952 250.887 476.043 247.498 469.005 243.378C431.823 221.382 406.062 209.554 384.549 204.57C380.366 203.64 376.648 203.374 366.954 203.374C355.733 203.44 353.808 203.573 344.38 205.567C329.972 208.624 320.211 210.883 294.184 217.395L271.477 223.044L255.674 220.053C199.503 209.487 152.694 203.042 132.31 203.042C117.039 203.042 97.4524 209.022 68.3045 222.445C55.6892 228.293 37.9615 237.53 26.8069 244.042C22.1592 246.833 18.1754 248.893 17.9762 248.694C17.3787 248.162 19.0386 226.433 20.3665 216.93C33.5793 123.034 102.299 46.9478 194.324 24.3544C206.209 21.4305 220.02 19.3041 234.494 18.108C240.802 17.5764 259.127 17.7093 267.36 18.3073ZM158.47 222.977C176.265 225.037 192.532 227.363 214.11 231.018C224.933 232.812 233.83 234.407 233.963 234.473C234.029 234.606 229.581 236.4 224.003 238.527C198.374 248.295 173.675 259.459 117.969 286.438C95.8589 297.137 73.417 307.835 68.0389 310.294C49.1824 318.8 31.3882 325.378 30.3923 324.249C29.7283 323.451 26.9397 314.347 24.6822 305.443C22.7568 297.735 20.0345 282.318 19.3706 275.008L18.9058 270.29L23.4207 267.3C32.1186 261.585 47.9873 252.747 64.8519 244.308C88.9537 232.28 106.681 225.17 119.961 222.246C126.932 220.651 140.875 220.917 158.47 222.977ZM379.304 221.98C397.895 225.502 427.507 239.457 466.748 263.047L481.222 271.752L480.824 275.806C478.765 295.608 472.059 321.126 464.225 339.599C451.808 368.638 436.272 391.63 413.83 414.024C388.533 439.276 363.568 455.423 330.237 467.916C306.866 476.754 282.764 481.273 256.272 481.937C228.054 482.668 203.952 479.147 177.128 470.508C171.882 468.78 167.832 467.185 168.164 466.853C170.422 464.66 198.374 457.218 235.158 448.911C299.828 434.358 337.541 421.666 359.385 407.18C399.422 380.533 408.452 337.539 382.757 295.542C378.64 288.764 374.723 283.913 366.29 275.141C358.19 266.702 355.667 263.446 352.679 257.532C348.961 250.289 348.031 242.115 350.09 236.068C352.214 229.755 358.987 224.306 367.618 222.047C372.332 220.784 373.129 220.784 379.304 221.98ZM334.42 226.433C334.42 226.565 333.756 228.293 333.026 230.287C330.835 235.869 330.503 246.9 332.362 254.209C335.084 264.908 342.056 276.47 351.019 285.109C380.3 313.351 387.537 348.769 368.946 373.688C357.128 389.637 339.997 400.003 307.331 411.034C285.951 418.211 265.899 423.394 213.911 435.289C174.206 444.326 159.666 449.243 152.495 455.955C150.768 457.55 149.109 458.879 148.777 458.879C147.648 458.879 129.123 448.18 122.085 443.462C94.0662 424.723 71.2259 401.199 53.1662 372.492C47.3897 363.256 36.7663 342.523 37.4967 341.858C37.7623 341.659 41.2149 340.33 45.1986 339.001C59.1418 334.216 76.936 326.375 110.665 310.028C180.647 276.072 195.32 269.294 221.215 258.994C251.359 246.966 261.517 243.976 330.104 227.097C332.893 226.433 334.42 226.167 334.42 226.433Z" stroke="white" stroke-width="0.266667" mask="url(#path-1-inside-1_16_4)"/>
<path d="M369.812 65.7558C362.84 67.0184 354.74 70.8061 347.835 76.1222L344.05 79.046L341.527 76.6538C337.942 73.3977 332.365 70.0751 327.584 68.4803C323.667 67.1513 314.305 65.6893 310.387 65.8222C308.462 65.8887 308.462 65.8887 310.056 66.3538C310.985 66.6861 313.641 67.2842 316.031 67.6829C321.276 68.6796 329.974 72.7332 333.825 76.0557C335.352 77.3847 337.942 80.3751 339.602 82.7008C343.918 88.7479 344.117 88.8144 346.042 85.8241C348.698 81.9034 355.271 75.5906 360.052 72.4674C365.031 69.2777 372.667 66.4203 376.452 66.4203C377.912 66.4203 379.24 66.088 379.439 65.7558C379.904 64.9584 374.327 64.9584 369.812 65.7558Z" stroke="white" stroke-width="0.266667" mask="url(#path-1-inside-1_16_4)"/>
<path d="M293.827 88.2953C287.918 89.6907 278.954 94.4752 272.58 99.592L270.788 101.054L267.269 97.9307C260.496 91.9501 249.74 88.1624 240.046 88.2953L235.199 88.3617L239.183 88.9598C244.561 89.7572 252.329 92.5482 256.645 95.2727C260.828 97.9972 264.082 101.253 267.733 106.37C269.194 108.43 270.588 110.158 270.788 110.158C271.053 110.158 272.049 108.962 273.045 107.433C276.232 102.915 284.864 95.2727 289.71 92.7475C295.553 89.6907 298.342 88.8933 304.185 88.2288L308.899 87.7637L302.591 87.6972C299.139 87.6972 295.155 87.963 293.827 88.2953Z" stroke="white" stroke-width="0.266667" mask="url(#path-1-inside-1_16_4)"/>
<path d="M178 223C178 185.997 207.997 156 245 156C282.003 156 312 185.997 312 223" stroke="#f59e0b" stroke-width="21"/>
</svg>
